<svg xmlns="http://www.w3.org/2000/svg" viewBox="0 0 1536 1024" width="1536" height="1024">
  <defs>
    <linearGradient id="bg" x1="0%" y1="0%" x2="100%" y2="100%">
      <stop offset="0%" style="stop-color:#0d1b2e;stop-opacity:1"/>
      <stop offset="100%" style="stop-color:#162840;stop-opacity:1"/>
    </linearGradient>
    <filter id="glow">
      <feGaussianBlur stdDeviation="4" result="blur"/>
      <feMerge><feMergeNode in="blur"/><feMergeNode in="SourceGraphic"/></feMerge>
    </filter>
  </defs>
  <rect width="1536" height="1024" fill="url(#bg)"/>
  <g stroke="#1e3a5f" stroke-width="0.5" opacity="0.35">
    <line x1="0" y1="128" x2="1536" y2="128"/><line x1="0" y1="256" x2="1536" y2="256"/><line x1="0" y1="384" x2="1536" y2="384"/>
    <line x1="0" y1="512" x2="1536" y2="512"/><line x1="0" y1="640" x2="1536" y2="640"/><line x1="0" y1="768" x2="1536" y2="768"/><line x1="0" y1="896" x2="1536" y2="896"/>
    <line x1="192" y1="0" x2="192" y2="1024"/><line x1="384" y1="0" x2="384" y2="1024"/><line x1="576" y1="0" x2="576" y2="1024"/>
    <line x1="768" y1="0" x2="768" y2="1024"/><line x1="960" y1="0" x2="960" y2="1024"/><line x1="1152" y1="0" x2="1152" y2="1024"/><line x1="1344" y1="0" x2="1344" y2="1024"/>
  </g>
  <text x="768" y="76" text-anchor="middle" font-family="'Segoe UI', Arial, sans-serif" font-size="38" font-weight="700" fill="#e8f4fd" letter-spacing="2">TRUSTED COMPUTING BASE</text>
  <text x="768" y="114" text-anchor="middle" font-family="'Segoe UI', Arial, sans-serif" font-size="20" fill="#7ab8e8" letter-spacing="4">SECURITY KERNEL  ·  REFERENCE MONITOR</text>

  <rect x="188" y="214" width="1160" height="596" rx="26" fill="none" stroke="#1a7ccf" stroke-width="3" filter="url(#glow)"/>
  <text x="230" y="254" font-family="'Segoe UI', Arial, sans-serif" font-size="18" font-weight="700" fill="#7ab8e8">TRUSTED COMPUTING BASE</text>
  <text x="230" y="282" font-family="'Segoe UI', Arial, sans-serif" font-size="14" fill="#5a8ab0">All hardware, software, and firmware relied upon to enforce policy</text>

  <rect x="410" y="336" width="716" height="350" rx="22" fill="#0f2240" stroke="#4da6ff" stroke-width="2.5" filter="url(#glow)"/>
  <text x="468" y="378" font-family="'Segoe UI', Arial, sans-serif" font-size="18" font-weight="700" fill="#7ab8e8">SECURITY KERNEL</text>
  <text x="468" y="404" font-family="'Segoe UI', Arial, sans-serif" font-size="14" fill="#5a8ab0">Trusted enforcement core implementing policy mediation</text>

  <circle cx="768" cy="510" r="122" fill="#0d1b2e" stroke="#2ecc71" stroke-width="3" filter="url(#glow)"/>
  <path d="M768 430 L814 446 L814 492 Q814 531 768 552 Q722 531 722 492 L722 446 Z" fill="#0a8a3a" stroke="#2ecc71" stroke-width="2.5"/>
  <polyline points="744,489 765,512 800,470" stroke="white" stroke-width="7" fill="none" stroke-linecap="round" stroke-linejoin="round"/>
  <text x="768" y="594" text-anchor="middle" font-family="'Segoe UI', Arial, sans-serif" font-size="18" font-weight="700" fill="#e8f4fd">REFERENCE MONITOR</text>
  <text x="768" y="618" text-anchor="middle" font-family="'Segoe UI', Arial, sans-serif" font-size="14" fill="#7ab8e8">Tamperproof · Always Invoked · Verifiable</text>

  <rect x="246" y="670" width="220" height="88" rx="12" fill="#0f2a45" stroke="#1a7ccf" stroke-width="1.5"/>
  <text x="356" y="704" text-anchor="middle" font-family="'Segoe UI', Arial, sans-serif" font-size="16" fill="#e8f4fd">Smaller TCB</text>
  <text x="356" y="730" text-anchor="middle" font-family="'Segoe UI', Arial, sans-serif" font-size="13" fill="#7ab8e8">Higher assurance</text>

  <rect x="1070" y="670" width="220" height="88" rx="12" fill="#0f2a45" stroke="#1a7ccf" stroke-width="1.5"/>
  <text x="1180" y="704" text-anchor="middle" font-family="'Segoe UI', Arial, sans-serif" font-size="16" fill="#e8f4fd">Bypass Paths</text>
  <text x="1180" y="730" text-anchor="middle" font-family="'Segoe UI', Arial, sans-serif" font-size="13" fill="#ff8080">Break mediation</text>

  <text x="768" y="988" text-anchor="middle" font-family="'Segoe UI', Arial, sans-serif" font-size="15" fill="#2d5a8a" letter-spacing="4">CISSP SERIES  ·  POST #42</text>
</svg>