<svg xmlns="http://www.w3.org/2000/svg" viewBox="0 0 1536 1024" width="1536" height="1024">
  <defs>
    <linearGradient id="bg" x1="0%" y1="0%" x2="100%" y2="100%">
      <stop offset="0%" style="stop-color:#0d1b2e;stop-opacity:1"/>
      <stop offset="100%" style="stop-color:#162840;stop-opacity:1"/>
    </linearGradient>
    <filter id="glow">
      <feGaussianBlur stdDeviation="4" result="blur"/>
      <feMerge><feMergeNode in="blur"/><feMergeNode in="SourceGraphic"/></feMerge>
    </filter>
  </defs>
  <rect width="1536" height="1024" fill="url(#bg)"/>

  <text x="768" y="78" text-anchor="middle" font-family="'Segoe UI', Arial, sans-serif" font-size="38" font-weight="700" fill="#e8f4fd" letter-spacing="2">DATA LIFECYCLE GOVERNANCE</text>
  <text x="768" y="116" text-anchor="middle" font-family="'Segoe UI', Arial, sans-serif" font-size="20" fill="#7ab8e8" letter-spacing="4">RETAIN  ·  ARCHIVE  ·  HOLD  ·  DISPOSE</text>

  <circle cx="768" cy="540" r="280" fill="none" stroke="#1a7ccf" stroke-width="24" filter="url(#glow)"/>
  <path d="M768 260 A280 280 0 0 1 1024 430" stroke="#4da6ff" stroke-width="24" fill="none"/>
  <path d="M1024 430 A280 280 0 0 1 950 760" stroke="#2ecc71" stroke-width="24" fill="none"/>
  <path d="M950 760 A280 280 0 0 1 586 760" stroke="#ffb347" stroke-width="24" fill="none"/>
  <path d="M586 760 A280 280 0 0 1 512 430" stroke="#ff4d4d" stroke-width="24" fill="none"/>

  <rect x="678" y="300" width="180" height="66" rx="10" fill="#0f2240" stroke="#4da6ff" stroke-width="2"/>
  <text x="768" y="342" text-anchor="middle" font-family="'Segoe UI', Arial, sans-serif" font-size="24" font-weight="700" fill="#e8f4fd">RETAIN</text>

  <rect x="1038" y="500" width="200" height="66" rx="10" fill="#0f2a1a" stroke="#2ecc71" stroke-width="2"/>
  <text x="1138" y="542" text-anchor="middle" font-family="'Segoe UI', Arial, sans-serif" font-size="24" font-weight="700" fill="#e8f4fd">ARCHIVE</text>

  <rect x="678" y="824" width="180" height="66" rx="10" fill="#2a220d" stroke="#ffb347" stroke-width="2"/>
  <text x="768" y="866" text-anchor="middle" font-family="'Segoe UI', Arial, sans-serif" font-size="24" font-weight="700" fill="#e8f4fd">HOLD</text>

  <rect x="298" y="500" width="200" height="66" rx="10" fill="#2a0a0a" stroke="#ff4d4d" stroke-width="2"/>
  <text x="398" y="542" text-anchor="middle" font-family="'Segoe UI', Arial, sans-serif" font-size="24" font-weight="700" fill="#e8f4fd">DISPOSE</text>

  <circle cx="768" cy="540" r="104" fill="#0f2a45" stroke="#4da6ff" stroke-width="2.5"/>
  <path d="M768 476 L818 494 L818 546 Q818 590 768 614 Q718 590 718 546 L718 494 Z" fill="#0a8a3a" stroke="#2ecc71" stroke-width="2"/>
  <polyline points="742,546 764,570 802,522" stroke="white" stroke-width="7" fill="none" stroke-linecap="round" stroke-linejoin="round"/>

  <text x="768" y="988" text-anchor="middle" font-family="'Segoe UI', Arial, sans-serif" font-size="15" fill="#2d5a8a" letter-spacing="4">CISSP SERIES  ·  POST #46</text>
</svg>
