<svg xmlns="http://www.w3.org/2000/svg" viewBox="0 0 1000 420" width="1000" height="420">
  <defs>
    <linearGradient id="bg2" x1="0%" y1="0%" x2="100%" y2="100%">
      <stop offset="0%" style="stop-color:#0d1b2e;stop-opacity:1"/>
      <stop offset="100%" style="stop-color:#162840;stop-opacity:1"/>
    </linearGradient>
    <marker id="arrowB" markerWidth="8" markerHeight="6" refX="8" refY="3" orient="auto">
      <polygon points="0 0, 8 3, 0 6" fill="#4da6ff"/>
    </marker>
  </defs>
  <rect width="1000" height="420" fill="url(#bg2)"/>
  <text x="500" y="40" text-anchor="middle" font-family="'Segoe UI', Arial, sans-serif" font-size="20" font-weight="700" fill="#e8f4fd" letter-spacing="2">RETENTION AND DELETION DECISION FLOW</text>

  <rect x="70" y="88" width="220" height="78" rx="10" fill="#0f2240" stroke="#4da6ff" stroke-width="2"/>
  <text x="180" y="134" text-anchor="middle" font-family="'Segoe UI', Arial, sans-serif" font-size="15" font-weight="700" fill="#e8f4fd">Classify Record Type</text>

  <rect x="70" y="198" width="220" height="78" rx="10" fill="#0f2240" stroke="#4da6ff" stroke-width="2"/>
  <text x="180" y="244" text-anchor="middle" font-family="'Segoe UI', Arial, sans-serif" font-size="15" font-weight="700" fill="#e8f4fd">Retention Period Met?</text>

  <rect x="390" y="142" width="220" height="90" rx="10" fill="#2a220d" stroke="#ffb347" stroke-width="2"/>
  <text x="500" y="182" text-anchor="middle" font-family="'Segoe UI', Arial, sans-serif" font-size="15" font-weight="700" fill="#e8f4fd">Legal Hold Active?</text>
  <text x="500" y="206" text-anchor="middle" font-family="'Segoe UI', Arial, sans-serif" font-size="12" fill="#7ab8e8">If yes, pause deletion</text>

  <rect x="710" y="88" width="220" height="78" rx="10" fill="#0f2a1a" stroke="#2ecc71" stroke-width="2"/>
  <text x="820" y="134" text-anchor="middle" font-family="'Segoe UI', Arial, sans-serif" font-size="15" font-weight="700" fill="#e8f4fd">Select Disposal Method</text>

  <rect x="710" y="198" width="220" height="78" rx="10" fill="#2a0a0a" stroke="#ff4d4d" stroke-width="2"/>
  <text x="820" y="244" text-anchor="middle" font-family="'Segoe UI', Arial, sans-serif" font-size="15" font-weight="700" fill="#e8f4fd">Execute + Attest</text>

  <rect x="390" y="312" width="220" height="66" rx="10" fill="#0f2240" stroke="#4da6ff" stroke-width="2"/>
  <text x="500" y="352" text-anchor="middle" font-family="'Segoe UI', Arial, sans-serif" font-size="15" font-weight="700" fill="#e8f4fd">Audit Evidence Stored</text>

  <line x1="180" y1="166" x2="180" y2="198" stroke="#4da6ff" stroke-width="2.5" marker-end="url(#arrowB)"/>
  <line x1="290" y1="237" x2="390" y2="188" stroke="#4da6ff" stroke-width="2.5" marker-end="url(#arrowB)"/>
  <line x1="610" y1="188" x2="710" y2="127" stroke="#4da6ff" stroke-width="2.5" marker-end="url(#arrowB)"/>
  <line x1="820" y1="166" x2="820" y2="198" stroke="#4da6ff" stroke-width="2.5" marker-end="url(#arrowB)"/>
  <line x1="710" y1="238" x2="610" y2="334" stroke="#4da6ff" stroke-width="2.5" marker-end="url(#arrowB)"/>

  <text x="500" y="402" text-anchor="middle" font-family="'Segoe UI', Arial, sans-serif" font-size="13" fill="#2d5a8a" letter-spacing="3">CISSP SERIES  ·  POST #46</text>
</svg>
