<svg xmlns="http://www.w3.org/2000/svg" viewBox="0 0 1280 800" role="img" aria-labelledby="title desc">
  <title id="title">Idempotent background jobs</title>
  <desc id="desc">Queue retries are absorbed by a processed-events table and upsert write path.</desc>
  <defs>
    <linearGradient id="bg3" x1="0" y1="0" x2="1" y2="1">
      <stop offset="0%" stop-color="#11212d" />
      <stop offset="100%" stop-color="#253745" />
    </linearGradient>
    <marker id="arrow3" markerWidth="10" markerHeight="10" refX="8" refY="3" orient="auto" markerUnits="strokeWidth">
      <path d="M0,0 L0,6 L9,3 z" fill="#7cc4e4" />
    </marker>
  </defs>
  <rect width="1280" height="800" fill="url(#bg3)" />

  <rect x="80" y="260" width="250" height="260" rx="16" fill="#284b63" stroke="#7cc4e4" stroke-width="2" />
  <rect x="420" y="170" width="250" height="170" rx="16" fill="#3c6e71" stroke="#9bd8ba" stroke-width="2" />
  <rect x="420" y="420" width="250" height="170" rx="16" fill="#3c6e71" stroke="#9bd8ba" stroke-width="2" />
  <rect x="760" y="200" width="190" height="150" rx="14" fill="#d9a441" stroke="#f4d089" stroke-width="2" />
  <rect x="760" y="420" width="190" height="150" rx="14" fill="#d9a441" stroke="#f4d089" stroke-width="2" />
  <rect x="1030" y="260" width="180" height="260" rx="16" fill="#5f0f40" stroke="#dc7aa5" stroke-width="2" />

  <path d="M330 320 C370 320, 385 245, 420 245" fill="none" stroke="#7cc4e4" stroke-width="5" marker-end="url(#arrow3)" />
  <path d="M330 460 C370 460, 385 505, 420 505" fill="none" stroke="#7cc4e4" stroke-width="5" marker-end="url(#arrow3)" stroke-dasharray="10 8" />
  <path d="M670 245 C705 245, 725 245, 760 245" fill="none" stroke="#7cc4e4" stroke-width="5" marker-end="url(#arrow3)" />
  <path d="M670 505 C705 505, 725 505, 760 505" fill="none" stroke="#7cc4e4" stroke-width="5" marker-end="url(#arrow3)" />
  <path d="M950 285 C980 285, 995 330, 1030 330" fill="none" stroke="#7cc4e4" stroke-width="5" marker-end="url(#arrow3)" />
  <path d="M950 505 C980 505, 995 430, 1030 430" fill="none" stroke="#7cc4e4" stroke-width="5" marker-end="url(#arrow3)" />

  <circle cx="1120" cy="390" r="60" fill="#f4c95d" />
  <path d="M1092 392 l18 18 l39 -43" fill="none" stroke="#5b3f09" stroke-width="9" stroke-linecap="round" stroke-linejoin="round" />

  <circle cx="370" cy="245" r="10" fill="#ff7d7d" />
  <circle cx="370" cy="505" r="10" fill="#ff7d7d" />
</svg>
