<svg xmlns="http://www.w3.org/2000/svg" viewBox="0 0 1280 800" role="img" aria-labelledby="title desc">
  <title id="title">Idempotency key flow</title>
  <desc id="desc">Client retries with the same key and server returns stored response.</desc>
  <defs>
    <linearGradient id="bg2" x1="0" y1="0" x2="1" y2="1">
      <stop offset="0%" stop-color="#f5f8fb" />
      <stop offset="100%" stop-color="#dce8f1" />
    </linearGradient>
    <marker id="arrow2" markerWidth="10" markerHeight="10" refX="8" refY="3" orient="auto" markerUnits="strokeWidth">
      <path d="M0,0 L0,6 L9,3 z" fill="#2a6f97" />
    </marker>
  </defs>
  <rect width="1280" height="800" fill="url(#bg2)" />

  <rect x="70" y="250" width="190" height="110" rx="14" fill="#b7d0e2" stroke="#5d87a3" stroke-width="2" />
  <rect x="330" y="130" width="280" height="140" rx="14" fill="#a7cfe6" stroke="#3f7ba0" stroke-width="2" />
  <rect x="330" y="330" width="280" height="140" rx="14" fill="#a7cfe6" stroke="#3f7ba0" stroke-width="2" />
  <rect x="680" y="230" width="230" height="220" rx="14" fill="#98d5b3" stroke="#3f8e65" stroke-width="2" />
  <rect x="980" y="230" width="230" height="220" rx="14" fill="#f5d39a" stroke="#b07c1c" stroke-width="2" />

  <path d="M260 286 C295 286, 300 205, 330 200" fill="none" stroke="#2a6f97" stroke-width="5" marker-end="url(#arrow2)" />
  <path d="M260 322 C295 322, 300 395, 330 400" fill="none" stroke="#2a6f97" stroke-width="5" marker-end="url(#arrow2)" stroke-dasharray="10 8" />
  <path d="M610 200 C640 200, 650 260, 680 260" fill="none" stroke="#2a6f97" stroke-width="5" marker-end="url(#arrow2)" />
  <path d="M610 400 C640 400, 650 420, 680 420" fill="none" stroke="#2a6f97" stroke-width="5" marker-end="url(#arrow2)" />
  <path d="M910 340 C940 340, 950 340, 980 340" fill="none" stroke="#2a6f97" stroke-width="5" marker-end="url(#arrow2)" />

  <circle cx="806" cy="282" r="14" fill="#2f8457" />
  <circle cx="806" cy="342" r="14" fill="#2f8457" />
  <circle cx="806" cy="402" r="14" fill="#2f8457" />
  <rect x="835" y="272" width="55" height="20" rx="5" fill="#4a9f74" />
  <rect x="835" y="332" width="55" height="20" rx="5" fill="#4a9f74" />
  <rect x="835" y="392" width="55" height="20" rx="5" fill="#4a9f74" />

  <circle cx="1095" cy="340" r="56" fill="#f0b94c" />
  <path d="M1068 342 l18 18 l39 -43" fill="none" stroke="#7d5309" stroke-width="8" stroke-linecap="round" stroke-linejoin="round" />
</svg>
