<svg xmlns="http://www.w3.org/2000/svg" viewBox="0 0 1000 420" width="1000" height="420">
  <defs>
    <linearGradient id="bg2" x1="0%" y1="0%" x2="100%" y2="100%">
      <stop offset="0%" style="stop-color:#0d1b2e;stop-opacity:1"/>
      <stop offset="100%" style="stop-color:#162840;stop-opacity:1"/>
    </linearGradient>
    <marker id="arrowB" markerWidth="8" markerHeight="6" refX="8" refY="3" orient="auto">
      <polygon points="0 0, 8 3, 0 6" fill="#4da6ff"/>
    </marker>
  </defs>
  <rect width="1000" height="420" fill="url(#bg2)"/>
  <text x="500" y="40" text-anchor="middle" font-family="'Segoe UI', Arial, sans-serif" font-size="20" font-weight="700" fill="#e8f4fd" letter-spacing="2">MEDIA SANITIZATION DECISION FLOW</text>

  <rect x="70" y="88" width="230" height="72" rx="10" fill="#0f2240" stroke="#4da6ff" stroke-width="2"/>
  <text x="185" y="132" text-anchor="middle" font-family="'Segoe UI', Arial, sans-serif" font-size="15" font-weight="700" fill="#e8f4fd">Identify Media Type</text>

  <rect x="70" y="190" width="230" height="72" rx="10" fill="#0f2240" stroke="#4da6ff" stroke-width="2"/>
  <text x="185" y="234" text-anchor="middle" font-family="'Segoe UI', Arial, sans-serif" font-size="15" font-weight="700" fill="#e8f4fd">Check Data Class</text>

  <rect x="385" y="142" width="230" height="92" rx="10" fill="#2a220d" stroke="#ffb347" stroke-width="2"/>
  <text x="500" y="182" text-anchor="middle" font-family="'Segoe UI', Arial, sans-serif" font-size="15" font-weight="700" fill="#e8f4fd">Legal Hold Active?</text>
  <text x="500" y="206" text-anchor="middle" font-family="'Segoe UI', Arial, sans-serif" font-size="12" fill="#7ab8e8">Pause disposal if yes</text>

  <rect x="700" y="88" width="230" height="72" rx="10" fill="#0f2a1a" stroke="#2ecc71" stroke-width="2"/>
  <text x="815" y="132" text-anchor="middle" font-family="'Segoe UI', Arial, sans-serif" font-size="15" font-weight="700" fill="#e8f4fd">Select Method</text>

  <rect x="700" y="190" width="230" height="72" rx="10" fill="#0f2a1a" stroke="#2ecc71" stroke-width="2"/>
  <text x="815" y="234" text-anchor="middle" font-family="'Segoe UI', Arial, sans-serif" font-size="15" font-weight="700" fill="#e8f4fd">Clear / Purge / Destroy</text>

  <rect x="385" y="312" width="230" height="72" rx="10" fill="#2a0a0a" stroke="#ff4d4d" stroke-width="2"/>
  <text x="500" y="356" text-anchor="middle" font-family="'Segoe UI', Arial, sans-serif" font-size="15" font-weight="700" fill="#e8f4fd">Verify + Log Evidence</text>

  <line x1="185" y1="160" x2="185" y2="190" stroke="#4da6ff" stroke-width="2.5" marker-end="url(#arrowB)"/>
  <line x1="300" y1="226" x2="385" y2="188" stroke="#4da6ff" stroke-width="2.5" marker-end="url(#arrowB)"/>
  <line x1="615" y1="188" x2="700" y2="126" stroke="#4da6ff" stroke-width="2.5" marker-end="url(#arrowB)"/>
  <line x1="815" y1="160" x2="815" y2="190" stroke="#4da6ff" stroke-width="2.5" marker-end="url(#arrowB)"/>
  <line x1="700" y1="226" x2="615" y2="348" stroke="#4da6ff" stroke-width="2.5" marker-end="url(#arrowB)"/>

  <text x="500" y="402" text-anchor="middle" font-family="'Segoe UI', Arial, sans-serif" font-size="13" fill="#2d5a8a" letter-spacing="3">CISSP SERIES  ·  POST #47</text>
</svg>
